# xmcd
#
# Track frame offsets:
#	150
#	12269
#	26120
#	38066
#	51045
#	63990
#	78887
#	99178
#	118333
#	132075
#	143797
#	157010
#	171557
#	185596
#	198301
#	210899
#
# Disc length: 3006 seconds
#
# Revision: 0
# Processed by: cddbd v1.5.2PL0 Copyright (c) Steve Scherf et al.
# Submitted via: audiograbber 1.83.01
#
DISCID=d70bbc10
DTITLE=Various Artist - Das waren Schlager 1930
DYEAR=1900
DGENRE=Retro
TTITLE0=Siegfried Arno - Wenn Die Elisabeth Nicht So Schöne Beine Hätt'
TTITLE1=Marlene Dietrich - Ich Bin Von Kopf Bis Fuß Auf Liebe  Eingestellt
TTITLE2=Comedian Harmonists - Veronika,Der Lenz Ist Da
TTITLE3=Lilian Harvey Und Willy Fritsch - Liebling,Mein Herz Lässt Dich Grüßen
TTITLE4=Austin Egen - Ich Hab' Kein Auto, Ich Hab' Kein Rittergut
TTITLE5=Saxophon-Orchester Dobbri - Oh,Donna Clara!
TTITLE6=Liane Haid - Adieu,Mein Kleiner Gardeoffizier
TTITLE7=Marcel Wittrisch - Frag Nicht Warum Ich Gehe - Das Lied ist aus
TTITLE8=Willy Fritsch - Ein Freund,Ein Guter Freund
TTITLE9=Marlene Dietrich - Ich Bin Die Fesche Lola
TTITLE10=Manfred Straub - Wenn Du Einmal Dein Herz Verschenkst
TTITLE11=Comedian Harmomists - Wochenend' Und Sonnenschein
TTITLE12=Marek Weber Und Sein Orchester - Auch Du Wirst Mich Einmal Betrügen
TTITLE13=Leo Frank - Guck Doch Nicht Immer Nach Dem Tangogeiger Hin
TTITLE14=Leo Moll - Zwei Herzen Im 3/4 Takt
TTITLE15=Marlene Dietrich - Nimm dich in acht vor blonden Frau'n
EXTD=
EXTT0=
EXTT1=
EXTT2=
EXTT3=
EXTT4=
EXTT5=
EXTT6=
EXTT7=
EXTT8=
EXTT9=
EXTT10=
EXTT11=
EXTT12=
EXTT13=
EXTT14=
EXTT15=
PLAYORDER=
